<?xml version="1.0" encoding="UTF-8" standalone="no"?>
<svg
   xmlns:dc="http://purl.org/dc/elements/1.1/"
   xmlns:cc="http://creativecommons.org/ns#"
   xmlns:rdf="http://www.w3.org/1999/02/22-rdf-syntax-ns#"
   xmlns:svg="http://www.w3.org/2000/svg"
   xmlns="http://www.w3.org/2000/svg"
   xmlns:sodipodi="http://sodipodi.sourceforge.net/DTD/sodipodi-0.dtd"
   xmlns:inkscape="http://www.inkscape.org/namespaces/inkscape"
   height="1112"
   id="Layer_1"
   version="1.1"
   viewBox="0 0 2252 1112"
   width="2252"
   xml:space="preserve"
   sodipodi:docname="program.svg"
   inkscape:version="0.92.1 r"><metadata
     id="metadata39"><rdf:RDF><cc:Work
         rdf:about=""><dc:format>image/svg+xml</dc:format><dc:type
           rdf:resource="http://purl.org/dc/dcmitype/StillImage" /><dc:title></dc:title></cc:Work></rdf:RDF></metadata><defs
     id="defs37" /><sodipodi:namedview
     pagecolor="#ffffff"
     bordercolor="#666666"
     borderopacity="1"
     objecttolerance="10"
     gridtolerance="10"
     guidetolerance="10"
     inkscape:pageopacity="0"
     inkscape:pageshadow="2"
     inkscape:window-width="1366"
     inkscape:window-height="708"
     id="namedview35"
     showgrid="false"
     inkscape:zoom="0.2633426"
     inkscape:cx="1280.2755"
     inkscape:cy="656.89217"
     inkscape:window-x="0"
     inkscape:window-y="0"
     inkscape:window-maximized="1"
     inkscape:current-layer="g4856"
     fit-margin-top="0"
     fit-margin-left="0"
     fit-margin-right="0"
     fit-margin-bottom="0" /><g
     id="g32"
     transform="translate(-2.1694916,1499.7288)"><g
       id="g4648"
       transform="translate(0,-340)"><path
         id="path2-3"
         style="clip-rule:evenodd;fill:#d0bb7c;fill-opacity:1;fill-rule:evenodd"
         d="m 514.16949,-303.52481 c 0,-141.633 -114.564,-256.204 -256.198,-256.204 -141.231,0 -255.8019984,114.571 -255.8019984,256.204 0,141.225 114.5709984,255.795999 255.8019984,255.795999 141.634,0 256.198,-114.570999 256.198,-255.795999 z"
         inkscape:connector-curvature="0" /><path
         id="rect4527"
         d="m 135.66992,-428.72852 c -8.31,0 -15,6.69 -15,15 v 220 c 0,8.31 6.69,15 15,15 h 207.12696 l 52.87304,-49.27539 v -185.72461 c 0,-8.31 -6.69,-15 -15,-15 z"
         style="opacity:1;fill:#fdfbe6;fill-opacity:1;stroke:none;stroke-width:7.77183056;stroke-miterlimit:4;stroke-dasharray:none;stroke-opacity:1"
         inkscape:connector-curvature="0" /><path
         id="rect4544"
         d="m 135.16406,-428.72852 c -8.03,0 -14.49414,6.69 -14.49414,15 v 2.12305 34.31445 15 h 14.49414 246.01172 14.49414 v -15 -34.31445 -2.12305 c 0,-8.31 -6.46414,-15 -14.49414,-15 z"
         style="opacity:1;fill:#1d73cc;fill-opacity:1;stroke:none;stroke-width:7.63977528;stroke-miterlimit:4;stroke-dasharray:none;stroke-opacity:1"
         inkscape:connector-curvature="0" /><path
         id="rect4555"
         d="m 357.79688,-228.00391 c -8.31001,0 -15,6.69 -15,15 v 34.27539 l 52.87304,-49.27539 z"
         style="opacity:1;fill:#a5c1dd;fill-opacity:0.73964497;stroke:none;stroke-width:7.77183056;stroke-miterlimit:4;stroke-dasharray:none;stroke-opacity:1"
         inkscape:connector-curvature="0" /><circle
         r="10"
         cy="-399.50977"
         cx="182.70947"
         id="path4592-6"
         style="opacity:1;fill:#fdfbe6;fill-opacity:1;stroke:none;stroke-width:1.73425639;stroke-miterlimit:4;stroke-dasharray:none;stroke-opacity:1" /><circle
         r="10"
         cy="-399.50977"
         cx="332.70947"
         id="path4592-7"
         style="opacity:1;fill:#fdfbe6;fill-opacity:1;stroke:none;stroke-width:1.73425639;stroke-miterlimit:4;stroke-dasharray:none;stroke-opacity:1" /><g
         transform="translate(-0.46044922,-1.7988129)"
         id="g4588"><rect
           ry="5"
           rx="5"
           y="-228.72852"
           x="173.16992"
           height="10"
           width="170"
           id="rect4572"
           style="opacity:1;fill:#666666;fill-opacity:1;stroke:none;stroke-width:6.60882998;stroke-miterlimit:4;stroke-dasharray:none;stroke-opacity:1" /><rect
           style="opacity:1;fill:#666666;fill-opacity:1;stroke:none;stroke-width:6.60882998;stroke-miterlimit:4;stroke-dasharray:none;stroke-opacity:1"
           id="rect4578"
           width="170"
           height="10"
           x="173.16992"
           y="-258.72852"
           rx="5"
           ry="5" /><rect
           ry="5"
           rx="3.5201564"
           y="-288.72852"
           x="223.4846"
           height="10"
           width="119.68532"
           id="rect4580"
           style="opacity:1;fill:#666666;fill-opacity:1;stroke:none;stroke-width:5.54524279;stroke-miterlimit:4;stroke-dasharray:none;stroke-opacity:1" /><rect
           transform="rotate(90)"
           style="opacity:1;fill:#666666;fill-opacity:1;stroke:none;stroke-width:3.49471092;stroke-miterlimit:4;stroke-dasharray:none;stroke-opacity:1"
           id="rect4582"
           width="47.535961"
           height="10"
           x="-440.35031"
           y="-188.16992"
           rx="6"
           ry="6" /><rect
           ry="6"
           rx="6"
           y="-338.16992"
           x="-440.35031"
           height="10"
           width="47.535961"
           id="rect4630"
           style="opacity:1;fill:#666666;fill-opacity:1;stroke:none;stroke-width:3.49471092;stroke-miterlimit:4;stroke-dasharray:none;stroke-opacity:1"
           transform="rotate(90)" /><rect
           style="opacity:1;fill:#666666;fill-opacity:1;stroke:none;stroke-width:5.54524279;stroke-miterlimit:4;stroke-dasharray:none;stroke-opacity:1"
           id="rect4632"
           width="119.68532"
           height="10"
           x="223.4846"
           y="-318.72852"
           rx="3.5201564"
           ry="5" /></g><circle
         r="20"
         cy="-300.52734"
         cx="193.16992"
         id="path4592"
         style="opacity:1;fill:#9db2c1;fill-opacity:1;stroke:none;stroke-width:3.46851277;stroke-miterlimit:4;stroke-dasharray:none;stroke-opacity:1" /><path
         inkscape:connector-curvature="0"
         d="m 514.16949,-903.52481 c 0,-141.63299 -114.564,-256.20399 -256.198,-256.20399 -141.231,0 -255.8019984,114.571 -255.8019984,256.20399 0,141.225 114.5709984,255.796 255.8019984,255.796 141.634,0 256.198,-114.571 256.198,-255.796 z"
         style="clip-rule:evenodd;fill:#e3c55c;fill-opacity:1;fill-rule:evenodd"
         id="path4740" /><path
         inkscape:connector-curvature="0"
         style="opacity:1;fill:#fdfbe6;fill-opacity:1;stroke:none;stroke-width:7.77183056;stroke-miterlimit:4;stroke-dasharray:none;stroke-opacity:1"
         d="m 135.66992,-1028.7285 c -8.31,0 -15,6.69 -15,15 v 219.99998 c 0,8.31 6.69,15 15,15 h 207.12696 l 52.87304,-49.27539 v -185.72459 c 0,-8.31 -6.69,-15 -15,-15 z"
         id="path4742" /><path
         inkscape:connector-curvature="0"
         style="opacity:1;fill:#1d73cc;fill-opacity:1;stroke:none;stroke-width:7.63977528;stroke-miterlimit:4;stroke-dasharray:none;stroke-opacity:1"
         d="m 135.16406,-1028.7285 c -8.03,0 -14.49414,6.69 -14.49414,15 v 2.123 34.31448 15 h 14.49414 246.01172 14.49414 v -15 -34.31448 -2.123 c 0,-8.31 -6.46414,-15 -14.49414,-15 z"
         id="path4744" /><path
         inkscape:connector-curvature="0"
         style="opacity:1;fill:#a5c1dd;fill-opacity:0.73964497;stroke:none;stroke-width:7.77183056;stroke-miterlimit:4;stroke-dasharray:none;stroke-opacity:1"
         d="m 357.79688,-828.00391 c -8.31001,0 -15,6.69 -15,15 v 34.27539 l 52.87304,-49.27539 z"
         id="path4746" /><circle
         style="opacity:1;fill:#fdfbe6;fill-opacity:1;stroke:none;stroke-width:1.73425639;stroke-miterlimit:4;stroke-dasharray:none;stroke-opacity:1"
         id="circle4748"
         cx="182.70947"
         cy="-999.50977"
         r="10" /><circle
         style="opacity:1;fill:#fdfbe6;fill-opacity:1;stroke:none;stroke-width:1.73425639;stroke-miterlimit:4;stroke-dasharray:none;stroke-opacity:1"
         id="circle4750"
         cx="332.70947"
         cy="-999.50977"
         r="10" /><g
         id="g4764"
         transform="translate(-0.46044922,-601.79881)"><rect
           style="opacity:1;fill:#666666;fill-opacity:1;stroke:none;stroke-width:6.60882998;stroke-miterlimit:4;stroke-dasharray:none;stroke-opacity:1"
           id="rect4752"
           width="170"
           height="10"
           x="173.16992"
           y="-228.72852"
           rx="5"
           ry="5" /><rect
           ry="5"
           rx="5"
           y="-258.72852"
           x="173.16992"
           height="10"
           width="170"
           id="rect4754"
           style="opacity:1;fill:#666666;fill-opacity:1;stroke:none;stroke-width:6.60882998;stroke-miterlimit:4;stroke-dasharray:none;stroke-opacity:1" /><rect
           style="opacity:1;fill:#666666;fill-opacity:1;stroke:none;stroke-width:5.54524279;stroke-miterlimit:4;stroke-dasharray:none;stroke-opacity:1"
           id="rect4756"
           width="119.68532"
           height="10"
           x="223.4846"
           y="-288.72852"
           rx="3.5201564"
           ry="5" /><rect
           ry="6"
           rx="6"
           y="-188.16992"
           x="-440.35031"
           height="10"
           width="47.535961"
           id="rect4758"
           style="opacity:1;fill:#666666;fill-opacity:1;stroke:none;stroke-width:3.49471092;stroke-miterlimit:4;stroke-dasharray:none;stroke-opacity:1"
           transform="rotate(90)" /><rect
           transform="rotate(90)"
           style="opacity:1;fill:#666666;fill-opacity:1;stroke:none;stroke-width:3.49471092;stroke-miterlimit:4;stroke-dasharray:none;stroke-opacity:1"
           id="rect4760"
           width="47.535961"
           height="10"
           x="-440.35031"
           y="-338.16992"
           rx="6"
           ry="6" /><rect
           ry="5"
           rx="3.5201564"
           y="-318.72852"
           x="223.4846"
           height="10"
           width="119.68532"
           id="rect4762"
           style="opacity:1;fill:#666666;fill-opacity:1;stroke:none;stroke-width:5.54524279;stroke-miterlimit:4;stroke-dasharray:none;stroke-opacity:1" /></g><circle
         style="opacity:1;fill:#9db2c1;fill-opacity:1;stroke:none;stroke-width:3.46851277;stroke-miterlimit:4;stroke-dasharray:none;stroke-opacity:1"
         id="circle4766"
         cx="193.16992"
         cy="-900.52734"
         r="20" /></g><g
       id="g4678"
       transform="translate(580,-340)"><path
         inkscape:connector-curvature="0"
         d="m 514.16949,-303.52481 c 0,-141.633 -114.564,-256.204 -256.198,-256.204 -141.231,0 -255.8019984,114.571 -255.8019984,256.204 0,141.225 114.5709984,255.795999 255.8019984,255.795999 141.634,0 256.198,-114.570999 256.198,-255.795999 z"
         style="clip-rule:evenodd;fill:#d0bb7c;fill-opacity:1;fill-rule:evenodd"
         id="path4650" /><path
         style="opacity:1;fill:#fdfbe6;fill-opacity:1;stroke:none;stroke-width:7.77183056;stroke-miterlimit:4;stroke-dasharray:none;stroke-opacity:1"
         d="m 135.66992,-428.72852 c -8.31,0 -15,6.69 -15,15 v 220 c 0,8.31 6.69,15 15,15 h 207.12696 l 52.87304,-49.27539 v -185.72461 c 0,-8.31 -6.69,-15 -15,-15 z"
         id="path4652"
         inkscape:connector-curvature="0" /><path
         style="opacity:1;fill:#dd2e2e;fill-opacity:1;stroke:none;stroke-width:7.63977528;stroke-miterlimit:4;stroke-dasharray:none;stroke-opacity:1"
         d="m 135.16406,-428.72852 c -8.03,0 -14.49414,6.69 -14.49414,15 v 2.12305 34.31445 15 h 14.49414 246.01172 14.49414 v -15 -34.31445 -2.12305 c 0,-8.31 -6.46414,-15 -14.49414,-15 z"
         id="path4654"
         inkscape:connector-curvature="0" /><path
         style="opacity:1;fill:#dda5a5;fill-opacity:0.73964497;stroke:none;stroke-width:7.77183056;stroke-miterlimit:4;stroke-dasharray:none;stroke-opacity:1"
         d="m 357.79688,-228.00391 c -8.31001,0 -15,6.69 -15,15 v 34.27539 l 52.87304,-49.27539 z"
         id="path4656"
         inkscape:connector-curvature="0" /><circle
         style="opacity:1;fill:#fdfbe6;fill-opacity:1;stroke:none;stroke-width:1.73425639;stroke-miterlimit:4;stroke-dasharray:none;stroke-opacity:1"
         id="circle4658"
         cx="182.70947"
         cy="-399.50977"
         r="10" /><circle
         style="opacity:1;fill:#fdfbe6;fill-opacity:1;stroke:none;stroke-width:1.73425639;stroke-miterlimit:4;stroke-dasharray:none;stroke-opacity:1"
         id="circle4660"
         cx="332.70947"
         cy="-399.50977"
         r="10" /><g
         id="g4674"
         transform="translate(-0.46044922,-1.7988129)"><rect
           style="opacity:1;fill:#666666;fill-opacity:1;stroke:none;stroke-width:6.60882998;stroke-miterlimit:4;stroke-dasharray:none;stroke-opacity:1"
           id="rect4662"
           width="170"
           height="10"
           x="173.16992"
           y="-228.72852"
           rx="5"
           ry="5" /><rect
           ry="5"
           rx="5"
           y="-258.72852"
           x="173.16992"
           height="10"
           width="170"
           id="rect4664"
           style="opacity:1;fill:#666666;fill-opacity:1;stroke:none;stroke-width:6.60882998;stroke-miterlimit:4;stroke-dasharray:none;stroke-opacity:1" /><rect
           style="opacity:1;fill:#666666;fill-opacity:1;stroke:none;stroke-width:5.54524279;stroke-miterlimit:4;stroke-dasharray:none;stroke-opacity:1"
           id="rect4666"
           width="119.68532"
           height="10"
           x="223.4846"
           y="-288.72852"
           rx="3.5201564"
           ry="5" /><rect
           ry="6"
           rx="6"
           y="-188.16992"
           x="-440.35031"
           height="10"
           width="47.535961"
           id="rect4668"
           style="opacity:1;fill:#666666;fill-opacity:1;stroke:none;stroke-width:3.49471092;stroke-miterlimit:4;stroke-dasharray:none;stroke-opacity:1"
           transform="rotate(90)" /><rect
           transform="rotate(90)"
           style="opacity:1;fill:#666666;fill-opacity:1;stroke:none;stroke-width:3.49471092;stroke-miterlimit:4;stroke-dasharray:none;stroke-opacity:1"
           id="rect4670"
           width="47.535961"
           height="10"
           x="-440.35031"
           y="-338.16992"
           rx="6"
           ry="6" /><rect
           ry="5"
           rx="3.5201564"
           y="-318.72852"
           x="223.4846"
           height="10"
           width="119.68532"
           id="rect4672"
           style="opacity:1;fill:#666666;fill-opacity:1;stroke:none;stroke-width:5.54524279;stroke-miterlimit:4;stroke-dasharray:none;stroke-opacity:1" /></g><circle
         style="opacity:1;fill:#cd9191;fill-opacity:1;stroke:none;stroke-width:3.46851277;stroke-miterlimit:4;stroke-dasharray:none;stroke-opacity:1"
         id="circle4676"
         cx="193.16992"
         cy="-300.52734"
         r="20" /></g><g
       transform="translate(1160,-340)"
       id="g4708"><path
         id="path4680"
         style="clip-rule:evenodd;fill:#d0bb7c;fill-opacity:1;fill-rule:evenodd"
         d="m 514.16949,-303.52481 c 0,-141.633 -114.564,-256.204 -256.198,-256.204 -141.231,0 -255.8019984,114.571 -255.8019984,256.204 0,141.225 114.5709984,255.795999 255.8019984,255.795999 141.634,0 256.198,-114.570999 256.198,-255.795999 z"
         inkscape:connector-curvature="0" /><path
         inkscape:connector-curvature="0"
         id="path4682"
         d="m 135.66992,-428.72852 c -8.31,0 -15,6.69 -15,15 v 220 c 0,8.31 6.69,15 15,15 h 207.12696 l 52.87304,-49.27539 v -185.72461 c 0,-8.31 -6.69,-15 -15,-15 z"
         style="opacity:1;fill:#fdfbe6;fill-opacity:1;stroke:none;stroke-width:7.77183056;stroke-miterlimit:4;stroke-dasharray:none;stroke-opacity:1" /><path
         inkscape:connector-curvature="0"
         id="path4684"
         d="m 135.16406,-428.72852 c -8.03,0 -14.49414,6.69 -14.49414,15 v 2.12305 34.31445 15 h 14.49414 246.01172 14.49414 v -15 -34.31445 -2.12305 c 0,-8.31 -6.46414,-15 -14.49414,-15 z"
         style="opacity:1;fill:#238f46;fill-opacity:1;stroke:none;stroke-width:7.63977528;stroke-miterlimit:4;stroke-dasharray:none;stroke-opacity:1" /><path
         inkscape:connector-curvature="0"
         id="path4686"
         d="m 357.79688,-228.00391 c -8.31001,0 -15,6.69 -15,15 v 34.27539 l 52.87304,-49.27539 z"
         style="opacity:1;fill:#a5ddb7;fill-opacity:0.73964497;stroke:none;stroke-width:7.77183056;stroke-miterlimit:4;stroke-dasharray:none;stroke-opacity:1" /><circle
         r="10"
         cy="-399.50977"
         cx="182.70947"
         id="circle4688"
         style="opacity:1;fill:#fdfbe6;fill-opacity:1;stroke:none;stroke-width:1.73425639;stroke-miterlimit:4;stroke-dasharray:none;stroke-opacity:1" /><circle
         r="10"
         cy="-399.50977"
         cx="332.70947"
         id="circle4690"
         style="opacity:1;fill:#fdfbe6;fill-opacity:1;stroke:none;stroke-width:1.73425639;stroke-miterlimit:4;stroke-dasharray:none;stroke-opacity:1" /><g
         transform="translate(-0.46044922,-1.7988129)"
         id="g4704"><rect
           ry="5"
           rx="5"
           y="-228.72852"
           x="173.16992"
           height="10"
           width="170"
           id="rect4692"
           style="opacity:1;fill:#666666;fill-opacity:1;stroke:none;stroke-width:6.60882998;stroke-miterlimit:4;stroke-dasharray:none;stroke-opacity:1" /><rect
           style="opacity:1;fill:#666666;fill-opacity:1;stroke:none;stroke-width:6.60882998;stroke-miterlimit:4;stroke-dasharray:none;stroke-opacity:1"
           id="rect4694"
           width="170"
           height="10"
           x="173.16992"
           y="-258.72852"
           rx="5"
           ry="5" /><rect
           ry="5"
           rx="3.5201564"
           y="-288.72852"
           x="223.4846"
           height="10"
           width="119.68532"
           id="rect4696"
           style="opacity:1;fill:#666666;fill-opacity:1;stroke:none;stroke-width:5.54524279;stroke-miterlimit:4;stroke-dasharray:none;stroke-opacity:1" /><rect
           transform="rotate(90)"
           style="opacity:1;fill:#666666;fill-opacity:1;stroke:none;stroke-width:3.49471092;stroke-miterlimit:4;stroke-dasharray:none;stroke-opacity:1"
           id="rect4698"
           width="47.535961"
           height="10"
           x="-440.35031"
           y="-188.16992"
           rx="6"
           ry="6" /><rect
           ry="6"
           rx="6"
           y="-338.16992"
           x="-440.35031"
           height="10"
           width="47.535961"
           id="rect4700"
           style="opacity:1;fill:#666666;fill-opacity:1;stroke:none;stroke-width:3.49471092;stroke-miterlimit:4;stroke-dasharray:none;stroke-opacity:1"
           transform="rotate(90)" /><rect
           style="opacity:1;fill:#666666;fill-opacity:1;stroke:none;stroke-width:5.54524279;stroke-miterlimit:4;stroke-dasharray:none;stroke-opacity:1"
           id="rect4702"
           width="119.68532"
           height="10"
           x="223.4846"
           y="-318.72852"
           rx="3.5201564"
           ry="5" /></g><circle
         r="20"
         cy="-300.52734"
         cx="193.16992"
         id="circle4706"
         style="opacity:1;fill:#6db584;fill-opacity:1;stroke:none;stroke-width:3.46851277;stroke-miterlimit:4;stroke-dasharray:none;stroke-opacity:1" /></g><g
       id="g4738"
       transform="translate(1740)"><path
         inkscape:connector-curvature="0"
         d="m 514.16949,-643.52481 c 0,-141.633 -114.564,-256.204 -256.198,-256.204 -141.231,0 -255.8019984,114.571 -255.8019984,256.204 0,141.225 114.5709984,255.796 255.8019984,255.796 141.634,0 256.198,-114.571 256.198,-255.796 z"
         style="clip-rule:evenodd;fill:#d0bb7c;fill-opacity:1;fill-rule:evenodd"
         id="path4710" /><path
         style="opacity:1;fill:#fdfbe6;fill-opacity:1;stroke:none;stroke-width:7.77183056;stroke-miterlimit:4;stroke-dasharray:none;stroke-opacity:1"
         d="m 135.66992,-768.72852 c -8.31,0 -15,6.69 -15,15 v 220 c 0,8.31 6.69,15 15,15 h 207.12696 l 52.87304,-49.27539 v -185.72461 c 0,-8.31 -6.69,-15 -15,-15 z"
         id="path4712"
         inkscape:connector-curvature="0" /><path
         style="opacity:1;fill:#dd5d26;fill-opacity:1;stroke:none;stroke-width:7.63977528;stroke-miterlimit:4;stroke-dasharray:none;stroke-opacity:1"
         d="m 135.16406,-768.72852 c -8.03,0 -14.49414,6.69 -14.49414,15 v 2.12305 34.31445 15 h 14.49414 246.01172 14.49414 v -15 -34.31445 -2.12305 c 0,-8.31 -6.46414,-15 -14.49414,-15 z"
         id="path4714"
         inkscape:connector-curvature="0" /><path
         style="opacity:1;fill:#ddb6a5;fill-opacity:0.73964497;stroke:none;stroke-width:7.77183056;stroke-miterlimit:4;stroke-dasharray:none;stroke-opacity:1"
         d="m 357.79688,-568.00391 c -8.31001,0 -15,6.69 -15,15 v 34.27539 l 52.87304,-49.27539 z"
         id="path4716"
         inkscape:connector-curvature="0" /><circle
         style="opacity:1;fill:#fdfbe6;fill-opacity:1;stroke:none;stroke-width:1.73425639;stroke-miterlimit:4;stroke-dasharray:none;stroke-opacity:1"
         id="circle4718"
         cx="182.70947"
         cy="-739.50977"
         r="10" /><circle
         style="opacity:1;fill:#fdfbe6;fill-opacity:1;stroke:none;stroke-width:1.73425639;stroke-miterlimit:4;stroke-dasharray:none;stroke-opacity:1"
         id="circle4720"
         cx="332.70947"
         cy="-739.50977"
         r="10" /><g
         id="g4734"
         transform="translate(-0.46044922,-341.79881)"><rect
           style="opacity:1;fill:#666666;fill-opacity:1;stroke:none;stroke-width:6.60882998;stroke-miterlimit:4;stroke-dasharray:none;stroke-opacity:1"
           id="rect4722"
           width="170"
           height="10"
           x="173.16992"
           y="-228.72852"
           rx="5"
           ry="5" /><rect
           ry="5"
           rx="5"
           y="-258.72852"
           x="173.16992"
           height="10"
           width="170"
           id="rect4724"
           style="opacity:1;fill:#666666;fill-opacity:1;stroke:none;stroke-width:6.60882998;stroke-miterlimit:4;stroke-dasharray:none;stroke-opacity:1" /><rect
           style="opacity:1;fill:#666666;fill-opacity:1;stroke:none;stroke-width:5.54524279;stroke-miterlimit:4;stroke-dasharray:none;stroke-opacity:1"
           id="rect4726"
           width="119.68532"
           height="10"
           x="223.4846"
           y="-288.72852"
           rx="3.5201564"
           ry="5" /><rect
           ry="6"
           rx="6"
           y="-188.16992"
           x="-440.35031"
           height="10"
           width="47.535961"
           id="rect4728"
           style="opacity:1;fill:#666666;fill-opacity:1;stroke:none;stroke-width:3.49471092;stroke-miterlimit:4;stroke-dasharray:none;stroke-opacity:1"
           transform="rotate(90)" /><rect
           transform="rotate(90)"
           style="opacity:1;fill:#666666;fill-opacity:1;stroke:none;stroke-width:3.49471092;stroke-miterlimit:4;stroke-dasharray:none;stroke-opacity:1"
           id="rect4730"
           width="47.535961"
           height="10"
           x="-440.35031"
           y="-338.16992"
           rx="6"
           ry="6" /><rect
           ry="5"
           rx="3.5201564"
           y="-318.72852"
           x="223.4846"
           height="10"
           width="119.68532"
           id="rect4732"
           style="opacity:1;fill:#666666;fill-opacity:1;stroke:none;stroke-width:5.54524279;stroke-miterlimit:4;stroke-dasharray:none;stroke-opacity:1" /></g><circle
         style="opacity:1;fill:#e29978;fill-opacity:1;stroke:none;stroke-width:3.46851277;stroke-miterlimit:4;stroke-dasharray:none;stroke-opacity:1"
         id="circle4736"
         cx="193.16992"
         cy="-640.52734"
         r="20" /></g><g
       transform="translate(580,-940)"
       id="g4796"><path
         id="path4768"
         style="clip-rule:evenodd;fill:#e3c55c;fill-opacity:1;fill-rule:evenodd"
         d="m 514.16949,-303.52481 c 0,-141.633 -114.564,-256.204 -256.198,-256.204 -141.231,0 -255.8019984,114.571 -255.8019984,256.204 0,141.225 114.5709984,255.795999 255.8019984,255.795999 141.634,0 256.198,-114.570999 256.198,-255.795999 z"
         inkscape:connector-curvature="0" /><path
         inkscape:connector-curvature="0"
         id="path4770"
         d="m 135.66992,-428.72852 c -8.31,0 -15,6.69 -15,15 v 220 c 0,8.31 6.69,15 15,15 h 207.12696 l 52.87304,-49.27539 v -185.72461 c 0,-8.31 -6.69,-15 -15,-15 z"
         style="opacity:1;fill:#fdfbe6;fill-opacity:1;stroke:none;stroke-width:7.77183056;stroke-miterlimit:4;stroke-dasharray:none;stroke-opacity:1" /><path
         inkscape:connector-curvature="0"
         id="path4772"
         d="m 135.16406,-428.72852 c -8.03,0 -14.49414,6.69 -14.49414,15 v 2.12305 34.31445 15 h 14.49414 246.01172 14.49414 v -15 -34.31445 -2.12305 c 0,-8.31 -6.46414,-15 -14.49414,-15 z"
         style="opacity:1;fill:#dd2e2e;fill-opacity:1;stroke:none;stroke-width:7.63977528;stroke-miterlimit:4;stroke-dasharray:none;stroke-opacity:1" /><path
         inkscape:connector-curvature="0"
         id="path4774"
         d="m 357.79688,-228.00391 c -8.31001,0 -15,6.69 -15,15 v 34.27539 l 52.87304,-49.27539 z"
         style="opacity:1;fill:#dda5a5;fill-opacity:0.73964497;stroke:none;stroke-width:7.77183056;stroke-miterlimit:4;stroke-dasharray:none;stroke-opacity:1" /><circle
         r="10"
         cy="-399.50977"
         cx="182.70947"
         id="circle4776"
         style="opacity:1;fill:#fdfbe6;fill-opacity:1;stroke:none;stroke-width:1.73425639;stroke-miterlimit:4;stroke-dasharray:none;stroke-opacity:1" /><circle
         r="10"
         cy="-399.50977"
         cx="332.70947"
         id="circle4778"
         style="opacity:1;fill:#fdfbe6;fill-opacity:1;stroke:none;stroke-width:1.73425639;stroke-miterlimit:4;stroke-dasharray:none;stroke-opacity:1" /><g
         transform="translate(-0.46044922,-1.7988129)"
         id="g4792"><rect
           ry="5"
           rx="5"
           y="-228.72852"
           x="173.16992"
           height="10"
           width="170"
           id="rect4780"
           style="opacity:1;fill:#666666;fill-opacity:1;stroke:none;stroke-width:6.60882998;stroke-miterlimit:4;stroke-dasharray:none;stroke-opacity:1" /><rect
           style="opacity:1;fill:#666666;fill-opacity:1;stroke:none;stroke-width:6.60882998;stroke-miterlimit:4;stroke-dasharray:none;stroke-opacity:1"
           id="rect4782"
           width="170"
           height="10"
           x="173.16992"
           y="-258.72852"
           rx="5"
           ry="5" /><rect
           ry="5"
           rx="3.5201564"
           y="-288.72852"
           x="223.4846"
           height="10"
           width="119.68532"
           id="rect4784"
           style="opacity:1;fill:#666666;fill-opacity:1;stroke:none;stroke-width:5.54524279;stroke-miterlimit:4;stroke-dasharray:none;stroke-opacity:1" /><rect
           transform="rotate(90)"
           style="opacity:1;fill:#666666;fill-opacity:1;stroke:none;stroke-width:3.49471092;stroke-miterlimit:4;stroke-dasharray:none;stroke-opacity:1"
           id="rect4786"
           width="47.535961"
           height="10"
           x="-440.35031"
           y="-188.16992"
           rx="6"
           ry="6" /><rect
           ry="6"
           rx="6"
           y="-338.16992"
           x="-440.35031"
           height="10"
           width="47.535961"
           id="rect4788"
           style="opacity:1;fill:#666666;fill-opacity:1;stroke:none;stroke-width:3.49471092;stroke-miterlimit:4;stroke-dasharray:none;stroke-opacity:1"
           transform="rotate(90)" /><rect
           style="opacity:1;fill:#666666;fill-opacity:1;stroke:none;stroke-width:5.54524279;stroke-miterlimit:4;stroke-dasharray:none;stroke-opacity:1"
           id="rect4790"
           width="119.68532"
           height="10"
           x="223.4846"
           y="-318.72852"
           rx="3.5201564"
           ry="5" /></g><circle
         r="20"
         cy="-300.52734"
         cx="193.16992"
         id="circle4794"
         style="opacity:1;fill:#cd9191;fill-opacity:1;stroke:none;stroke-width:3.46851277;stroke-miterlimit:4;stroke-dasharray:none;stroke-opacity:1" /></g><g
       id="g4826"
       transform="translate(1160,-940)"><path
         inkscape:connector-curvature="0"
         d="m 514.16949,-303.52481 c 0,-141.633 -114.564,-256.204 -256.198,-256.204 -141.231,0 -255.8019984,114.571 -255.8019984,256.204 0,141.225 114.5709984,255.795999 255.8019984,255.795999 141.634,0 256.198,-114.570999 256.198,-255.795999 z"
         style="clip-rule:evenodd;fill:#e3c55c;fill-opacity:1;fill-rule:evenodd"
         id="path4798" /><path
         style="opacity:1;fill:#fdfbe6;fill-opacity:1;stroke:none;stroke-width:7.77183056;stroke-miterlimit:4;stroke-dasharray:none;stroke-opacity:1"
         d="m 135.66992,-428.72852 c -8.31,0 -15,6.69 -15,15 v 220 c 0,8.31 6.69,15 15,15 h 207.12696 l 52.87304,-49.27539 v -185.72461 c 0,-8.31 -6.69,-15 -15,-15 z"
         id="path4800"
         inkscape:connector-curvature="0" /><path
         style="opacity:1;fill:#238f46;fill-opacity:1;stroke:none;stroke-width:7.63977528;stroke-miterlimit:4;stroke-dasharray:none;stroke-opacity:1"
         d="m 135.16406,-428.72852 c -8.03,0 -14.49414,6.69 -14.49414,15 v 2.12305 34.31445 15 h 14.49414 246.01172 14.49414 v -15 -34.31445 -2.12305 c 0,-8.31 -6.46414,-15 -14.49414,-15 z"
         id="path4802"
         inkscape:connector-curvature="0" /><path
         style="opacity:1;fill:#a5ddb7;fill-opacity:0.73964497;stroke:none;stroke-width:7.77183056;stroke-miterlimit:4;stroke-dasharray:none;stroke-opacity:1"
         d="m 357.79688,-228.00391 c -8.31001,0 -15,6.69 -15,15 v 34.27539 l 52.87304,-49.27539 z"
         id="path4804"
         inkscape:connector-curvature="0" /><circle
         style="opacity:1;fill:#fdfbe6;fill-opacity:1;stroke:none;stroke-width:1.73425639;stroke-miterlimit:4;stroke-dasharray:none;stroke-opacity:1"
         id="circle4806"
         cx="182.70947"
         cy="-399.50977"
         r="10" /><circle
         style="opacity:1;fill:#fdfbe6;fill-opacity:1;stroke:none;stroke-width:1.73425639;stroke-miterlimit:4;stroke-dasharray:none;stroke-opacity:1"
         id="circle4808"
         cx="332.70947"
         cy="-399.50977"
         r="10" /><g
         id="g4822"
         transform="translate(-0.46044922,-1.7988129)"><rect
           style="opacity:1;fill:#666666;fill-opacity:1;stroke:none;stroke-width:6.60882998;stroke-miterlimit:4;stroke-dasharray:none;stroke-opacity:1"
           id="rect4810"
           width="170"
           height="10"
           x="173.16992"
           y="-228.72852"
           rx="5"
           ry="5" /><rect
           ry="5"
           rx="5"
           y="-258.72852"
           x="173.16992"
           height="10"
           width="170"
           id="rect4812"
           style="opacity:1;fill:#666666;fill-opacity:1;stroke:none;stroke-width:6.60882998;stroke-miterlimit:4;stroke-dasharray:none;stroke-opacity:1" /><rect
           style="opacity:1;fill:#666666;fill-opacity:1;stroke:none;stroke-width:5.54524279;stroke-miterlimit:4;stroke-dasharray:none;stroke-opacity:1"
           id="rect4814"
           width="119.68532"
           height="10"
           x="223.4846"
           y="-288.72852"
           rx="3.5201564"
           ry="5" /><rect
           ry="6"
           rx="6"
           y="-188.16992"
           x="-440.35031"
           height="10"
           width="47.535961"
           id="rect4816"
           style="opacity:1;fill:#666666;fill-opacity:1;stroke:none;stroke-width:3.49471092;stroke-miterlimit:4;stroke-dasharray:none;stroke-opacity:1"
           transform="rotate(90)" /><rect
           transform="rotate(90)"
           style="opacity:1;fill:#666666;fill-opacity:1;stroke:none;stroke-width:3.49471092;stroke-miterlimit:4;stroke-dasharray:none;stroke-opacity:1"
           id="rect4818"
           width="47.535961"
           height="10"
           x="-440.35031"
           y="-338.16992"
           rx="6"
           ry="6" /><rect
           ry="5"
           rx="3.5201564"
           y="-318.72852"
           x="223.4846"
           height="10"
           width="119.68532"
           id="rect4820"
           style="opacity:1;fill:#666666;fill-opacity:1;stroke:none;stroke-width:5.54524279;stroke-miterlimit:4;stroke-dasharray:none;stroke-opacity:1" /></g><circle
         style="opacity:1;fill:#6db584;fill-opacity:1;stroke:none;stroke-width:3.46851277;stroke-miterlimit:4;stroke-dasharray:none;stroke-opacity:1"
         id="circle4824"
         cx="193.16992"
         cy="-300.52734"
         r="20" /></g><g
       transform="translate(1740,-600)"
       id="g4856"><path
         id="path4828"
         style="clip-rule:evenodd;fill:#e3c55c;fill-opacity:1;fill-rule:evenodd"
         d="m 514.16949,-643.52481 c 0,-141.633 -114.564,-256.204 -256.198,-256.204 -141.231,0 -255.8019984,114.571 -255.8019984,256.204 0,141.225 114.5709984,255.796 255.8019984,255.796 141.634,0 256.198,-114.571 256.198,-255.796 z"
         inkscape:connector-curvature="0" /><path
         inkscape:connector-curvature="0"
         id="path4830"
         d="m 135.66992,-768.72852 c -8.31,0 -15,6.69 -15,15 v 220 c 0,8.31 6.69,15 15,15 h 207.12696 l 52.87304,-49.27539 v -185.72461 c 0,-8.31 -6.69,-15 -15,-15 z"
         style="opacity:1;fill:#fdfbe6;fill-opacity:1;stroke:none;stroke-width:7.77183056;stroke-miterlimit:4;stroke-dasharray:none;stroke-opacity:1" /><path
         inkscape:connector-curvature="0"
         id="path4832"
         d="m 135.16406,-768.72852 c -8.03,0 -14.49414,6.69 -14.49414,15 v 2.12305 34.31445 15 h 14.49414 246.01172 14.49414 v -15 -34.31445 -2.12305 c 0,-8.31 -6.46414,-15 -14.49414,-15 z"
         style="opacity:1;fill:#dd5d26;fill-opacity:1;stroke:none;stroke-width:7.63977528;stroke-miterlimit:4;stroke-dasharray:none;stroke-opacity:1" /><path
         inkscape:connector-curvature="0"
         id="path4834"
         d="m 357.79688,-568.00391 c -8.31001,0 -15,6.69 -15,15 v 34.27539 l 52.87304,-49.27539 z"
         style="opacity:1;fill:#ddb6a5;fill-opacity:0.73964497;stroke:none;stroke-width:7.77183056;stroke-miterlimit:4;stroke-dasharray:none;stroke-opacity:1" /><circle
         r="10"
         cy="-739.50977"
         cx="182.70947"
         id="circle4836"
         style="opacity:1;fill:#fdfbe6;fill-opacity:1;stroke:none;stroke-width:1.73425639;stroke-miterlimit:4;stroke-dasharray:none;stroke-opacity:1" /><circle
         r="10"
         cy="-739.50977"
         cx="332.70947"
         id="circle4838"
         style="opacity:1;fill:#fdfbe6;fill-opacity:1;stroke:none;stroke-width:1.73425639;stroke-miterlimit:4;stroke-dasharray:none;stroke-opacity:1" /><g
         transform="translate(-0.46044922,-341.79881)"
         id="g4852"><rect
           ry="5"
           rx="5"
           y="-228.72852"
           x="173.16992"
           height="10"
           width="170"
           id="rect4840"
           style="opacity:1;fill:#666666;fill-opacity:1;stroke:none;stroke-width:6.60882998;stroke-miterlimit:4;stroke-dasharray:none;stroke-opacity:1" /><rect
           style="opacity:1;fill:#666666;fill-opacity:1;stroke:none;stroke-width:6.60882998;stroke-miterlimit:4;stroke-dasharray:none;stroke-opacity:1"
           id="rect4842"
           width="170"
           height="10"
           x="173.16992"
           y="-258.72852"
           rx="5"
           ry="5" /><rect
           ry="5"
           rx="3.5201564"
           y="-288.72852"
           x="223.4846"
           height="10"
           width="119.68532"
           id="rect4844"
           style="opacity:1;fill:#666666;fill-opacity:1;stroke:none;stroke-width:5.54524279;stroke-miterlimit:4;stroke-dasharray:none;stroke-opacity:1" /><rect
           transform="rotate(90)"
           style="opacity:1;fill:#666666;fill-opacity:1;stroke:none;stroke-width:3.49471092;stroke-miterlimit:4;stroke-dasharray:none;stroke-opacity:1"
           id="rect4846"
           width="47.535961"
           height="10"
           x="-440.35031"
           y="-188.16992"
           rx="6"
           ry="6" /><rect
           ry="6"
           rx="6"
           y="-338.16992"
           x="-440.35031"
           height="10"
           width="47.535961"
           id="rect4848"
           style="opacity:1;fill:#666666;fill-opacity:1;stroke:none;stroke-width:3.49471092;stroke-miterlimit:4;stroke-dasharray:none;stroke-opacity:1"
           transform="rotate(90)" /><rect
           style="opacity:1;fill:#666666;fill-opacity:1;stroke:none;stroke-width:5.54524279;stroke-miterlimit:4;stroke-dasharray:none;stroke-opacity:1"
           id="rect4850"
           width="119.68532"
           height="10"
           x="223.4846"
           y="-318.72852"
           rx="3.5201564"
           ry="5" /></g><circle
         r="20"
         cy="-640.52734"
         cx="193.16992"
         id="circle4854"
         style="opacity:1;fill:#e29978;fill-opacity:1;stroke:none;stroke-width:3.46851277;stroke-miterlimit:4;stroke-dasharray:none;stroke-opacity:1" /></g></g></svg>