<?xml version="1.0" encoding="UTF-8" standalone="no"?>
<svg
   xmlns:dc="http://purl.org/dc/elements/1.1/"
   xmlns:cc="http://creativecommons.org/ns#"
   xmlns:rdf="http://www.w3.org/1999/02/22-rdf-syntax-ns#"
   xmlns:svg="http://www.w3.org/2000/svg"
   xmlns="http://www.w3.org/2000/svg"
   xmlns:sodipodi="http://sodipodi.sourceforge.net/DTD/sodipodi-0.dtd"
   xmlns:inkscape="http://www.inkscape.org/namespaces/inkscape"
   height="168"
   version="1.0"
   viewBox="0 0 244 168"
   width="244"
   xml:space="preserve"
   id="svg2"
   inkscape:version="0.91 r13725"
   sodipodi:docname="anon.svg"><metadata
     id="metadata43"><rdf:RDF><cc:Work
         rdf:about=""><dc:format>image/svg+xml</dc:format><dc:type
           rdf:resource="http://purl.org/dc/dcmitype/StillImage" /><dc:title></dc:title></cc:Work></rdf:RDF></metadata><defs
     id="defs41" /><sodipodi:namedview
     pagecolor="#ffffff"
     bordercolor="#666666"
     borderopacity="1"
     objecttolerance="10"
     gridtolerance="10"
     guidetolerance="10"
     inkscape:pageopacity="0"
     inkscape:pageshadow="2"
     inkscape:window-width="1366"
     inkscape:window-height="741"
     id="namedview39"
     showgrid="false"
     inkscape:zoom="1.5170655"
     inkscape:cx="52.446789"
     inkscape:cy="137.24028"
     inkscape:window-x="0"
     inkscape:window-y="27"
     inkscape:window-maximized="1"
     inkscape:current-layer="Multicolor" /><g
     id="Multicolor"
     transform="matrix(2.6985062,0,0,2.6985062,-38.59954,-66.698004)"><rect
       style="opacity:1;fill:#d6d9da;fill-opacity:1;fill-rule:evenodd;stroke:none;stroke-width:20;stroke-linecap:butt;stroke-linejoin:miter;stroke-miterlimit:4;stroke-dasharray:none;stroke-dashoffset:0;stroke-opacity:1"
       id="rect4171"
       width="90.420395"
       height="62.256668"
       x="14.304041"
       y="24.716639" /><g
       id="g5"
       transform="translate(4.5142379,0)"><path
         d="m 83,76 c -0.615,-1.333 -1.698,-2.394 -3.043,-2.982 l -9.816,-2.637 c 8.075,-9.637 13.396,-21.417 -0.192,-35.231 -5,-5.083 -15,-7.15 -15,-7.15 0,0 -10,2.067 -15,7.15 -13.474,13.699 -8.13,25.534 -0.075,35.227 l -9.832,2.641 C 28.698,73.606 27.615,74.667 27,76 l -4,11 32,0 32,0 -4,-11 z"
         style="fill:#3e3e3f"
         id="path7"
         inkscape:connector-curvature="0" /><path
         d="m 65.949,41.25 c -3,-3.05 -6,-2.033 -11,-2.033 -5,0 -8,-1.017 -11,2.033 -4.838,4.919 -2.615,16.559 1.98,26.13 C 49.961,71.556 55,73 55,73 c 0,0 4.875,-1.396 8.872,-5.415 4.662,-9.609 6.95,-21.381 2.077,-26.335 z"
         style="fill:#e2e4e5"
         id="path9"
         inkscape:connector-curvature="0" /><path
         d="m 43.949,41.25 c -4.856,4.938 -2.599,16.648 2.032,26.24 4.014,4.094 8.968,5.51 8.968,5.51 l 0,-33.783 c -5,0 -8,-1.017 -11,2.033 z"
         style="fill:#ffffff"
         id="path11"
         inkscape:connector-curvature="0" /><g
         id="g13"><polygon
           points="56.949,65 54.949,72 52.949,65 "
           style="fill:#3e3e3f"
           id="polygon15" /></g><path
         d="m 65,57 -3,2 -5,-2 -1,0 -2,0 -1,0 -5,2 -3,-2 -1,0 2.1,2.8 c 0.566,0.755 1.456,1.2 2.4,1.2 l 4.5,0 2,-2.667 2,2.667 4.5,0 c 0.944,0 1.833,-0.445 2.4,-1.2 L 66,57 65,57 Z"
         style="fill:#3e3e3f"
         id="path17"
         inkscape:connector-curvature="0" /><g
         id="g19"><path
           d="m 53.949,51 c -3,-6 -10,0 -10,0 l 10,0 z"
           style="fill:#3e3e3f"
           id="path21"
           inkscape:connector-curvature="0" /></g><g
         id="g23"><path
           d="m 55.949,51 c 3,-6 10,0 10,0 l -10,0 z"
           style="fill:#3e3e3f"
           id="path25"
           inkscape:connector-curvature="0" /></g><g
         id="g27"><path
           d="m 44.949,43 c 2,-1 9,3.139 9,3.139 0,0 -6,-8.139 -9,-3.139 z"
           style="fill:#3e3e3f"
           id="path29"
           inkscape:connector-curvature="0" /></g><g
         id="g31"><path
           d="m 64.949,43 c -2,-1 -9,3.139 -9,3.139 0,0 6,-8.139 9,-3.139 z"
           style="fill:#3e3e3f"
           id="path33"
           inkscape:connector-curvature="0" /></g><path
         d="m 55,73 c 0,0 -4.959,-1.418 -8.975,-5.517 2.538,5.258 5.788,9.88 8.975,12.4 3.187,-2.52 6.438,-7.142 8.975,-12.401 C 59.959,71.582 55,73 55,73 Z"
         style="fill:#f7b4b4"
         id="path35"
         inkscape:connector-curvature="0" /><path
         d="m 46.025,67.483 c 2.538,5.258 5.788,9.88 8.975,12.4 L 55,73 c 0,0 -4.959,-1.418 -8.975,-5.517 z"
         style="fill:#fbc8c8"
         id="path37"
         inkscape:connector-curvature="0" /></g></g></svg>